<?xml version="1.0" encoding="utf-8"?>
<!-- Generator: Adobe Illustrator 20.0.0, SVG Export Plug-In . SVG Version: 6.00 Build 0)  -->
<svg version="1.1" id="Layer_1" xmlns="http://www.w3.org/2000/svg" xmlns:xlink="http://www.w3.org/1999/xlink" x="0px" y="0px"
	 viewBox="0 0 1224 792" style="enable-background:new 0 0 1224 792;" xml:space="preserve">
<style type="text/css">
	.st0{fill-opacity:0;stroke:#000000;stroke-linecap:round;stroke-linejoin:round;}
	.st1{fill:none;stroke:#000000;stroke-linecap:round;stroke-linejoin:round;}
	.st2{fill:none;stroke:#000000;stroke-miterlimit:10;}
	.st3{fill:none;stroke:#231F20;stroke-width:5.625;stroke-linejoin:round;stroke-miterlimit:10;}
</style>
<g>
	<path class="st0" d="M1098.6,438.4v-220"/>
	<path class="st0" d="M1091.6,446.2l7-7.7"/>
	<path class="st0" d="M127.7,446.2h963.9"/>
	<path class="st0" d="M120.8,438.4l6.9,7.7"/>
	<path class="st0" d="M120.8,218.4v220"/>
	<path class="st0" d="M127.7,210.8l-6.9,7.6"/>
	<path class="st0" d="M835.8,210.8H127.7"/>
	<path class="st0" d="M835.8,210.8"/>
	<path class="st0" d="M869.8,210.8"/>
	<path class="st0" d="M1091.6,210.8H869.8"/>
	<path class="st0" d="M1098.6,218.4l-7-7.6"/>
</g>
<title>SVG Picture created as 40+10 Keyboard-Edge.Cuts.svg date 2017/06/06 17:59:47</title>
<desc>Picture generated by PCBNEW</desc>
<g transform="translate(0 0) scale(1 1)">
</g>
<circle class="st1" cx="778.5" cy="438.4" r="2.8"/>
<circle class="st1" cx="609.3" cy="438.4" r="2.8"/>
<circle class="st1" cx="353.7" cy="438.4" r="2.8"/>
<circle class="st1" cx="927" cy="438.4" r="2.8"/>
<circle class="st1" cx="927" cy="218.4" r="2.8"/>
<circle class="st1" cx="778.5" cy="218.4" r="2.8"/>
<circle class="st1" cx="346.5" cy="218.4" r="2.8"/>
<circle class="st1" cx="616.5" cy="218.4" r="2.8"/>
<circle class="st1" cx="131.3" cy="221.2" r="2.8"/>
<circle class="st1" cx="131.3" cy="435.5" r="2.8"/>
<circle class="st1" cx="1088.2" cy="221.2" r="2.8"/>
<circle class="st1" cx="1088.2" cy="435.5" r="2.8"/>
<g>
	<path class="st0" d="M869.8,223.6h9.1"/>
	<path class="st0" d="M869.8,223.6"/>
	<path class="st0" d="M835.8,223.6"/>
	<path class="st0" d="M826.5,223.6h9.3"/>
	<path class="st0" d="M878.9,223.6v92.3"/>
	<path class="st0" d="M878.9,315.9h-52.4"/>
	<path class="st0" d="M826.5,315.9v-92.3"/>
</g>
<line class="st2" x1="835.8" y1="223.6" x2="835.8" y2="210.8"/>
<path class="st2" d="M869.8,210.8"/>
<line class="st2" x1="869.8" y1="223.6" x2="869.8" y2="210.8"/>
<g>
	<polyline class="st3" points="935.5,328.4 920.3,313.2 920.3,267.6 965.9,298 963.4,298 963.4,285.4 976,298 976,285.4 988.7,298 
		988.7,285.4 1001.3,298 996.3,298 1041.8,267.6 1041.8,313.2 1026.7,328.4 	"/>
	<polyline class="st3" points="1011.5,381.6 1041.8,389.1 1034.3,358.8 	"/>
	<polyline class="st3" points="927.9,358.8 920.3,389.1 950.7,381.6 	"/>
	<polyline class="st3" points="992.5,346.1 969.7,346.1 981.1,363.8 1003.9,328.4 1019.1,328.4 	"/>
	<line class="st3" x1="1026.7" y1="374" x2="1006.3" y2="353.6"/>
	<line class="st3" x1="955.9" y1="353.6" x2="935.5" y2="374"/>
	<polyline class="st3" points="964,337.3 958.3,328.4 943.1,328.4 	"/>
</g>
</svg>
