<?xml version="1.0" encoding="utf-8"?>
<!-- Generator: Adobe Illustrator 20.0.0, SVG Export Plug-In . SVG Version: 6.00 Build 0)  -->
<svg version="1.1" id="Layer_1" xmlns="http://www.w3.org/2000/svg" xmlns:xlink="http://www.w3.org/1999/xlink" x="0px" y="0px"
	 viewBox="0 0 1224 792" style="enable-background:new 0 0 1224 792;" xml:space="preserve">
<style type="text/css">
	.st0{fill-opacity:0;stroke:#000000;stroke-linecap:round;stroke-linejoin:round;}
	.st1{fill:none;stroke:#000000;stroke-linecap:round;stroke-linejoin:round;}
	.st2{fill:none;stroke:#000000;stroke-miterlimit:10;}
</style>
<title>SVG Picture created as 40+10 Keyboard-Edge.Cuts.svg date 2017/06/06 17:59:47</title>
<desc>Picture generated by PCBNEW</desc>
<g transform="translate(0 0) scale(1 1)">
</g>
<g>
	<path class="st0" d="M1085.9,426.5V230.3"/>
	<path class="st0" d="M1079.1,433.4l6.8-6.9"/>
	<path class="st0" d="M140.3,433.4h938.8"/>
	<path class="st0" d="M133.6,426.5l6.7,6.9"/>
	<path class="st0" d="M133.6,230.3v196.1"/>
	<path class="st0" d="M140.3,223.5l-6.7,6.8"/>
	<path class="st0" d="M835.8,223.5H140.3"/>
	<path class="st0" d="M835.8,223.5"/>
	<path class="st0" d="M869.8,223.5"/>
	<path class="st0" d="M1079.1,223.5H869.8"/>
	<path class="st0" d="M1085.9,230.3l-6.8-6.8"/>
</g>
<g>
	<path class="st0" d="M1098.6,438.4v-220"/>
	<path class="st0" d="M1091.6,446.1l7-7.7"/>
	<path class="st0" d="M127.7,446.1h963.9"/>
	<path class="st0" d="M120.8,438.4l6.9,7.7"/>
	<path class="st0" d="M120.8,218.4v220"/>
	<path class="st0" d="M127.7,210.8l-6.9,7.6"/>
	<path class="st0" d="M835.8,210.8H127.7"/>
	<path class="st0" d="M835.8,210.8"/>
	<path class="st0" d="M869.8,210.8"/>
	<path class="st0" d="M1091.6,210.8H869.8"/>
	<path class="st0" d="M1098.6,218.4l-7-7.6"/>
</g>
<circle class="st1" cx="778.5" cy="438.4" r="2.8"/>
<circle class="st1" cx="609.3" cy="438.4" r="2.8"/>
<circle class="st1" cx="353.7" cy="438.4" r="2.8"/>
<circle class="st1" cx="927" cy="438.4" r="2.8"/>
<circle class="st1" cx="927" cy="218.4" r="2.8"/>
<circle class="st1" cx="778.5" cy="218.4" r="2.8"/>
<circle class="st1" cx="346.5" cy="218.4" r="2.8"/>
<circle class="st1" cx="616.5" cy="218.4" r="2.8"/>
<circle class="st1" cx="131.3" cy="221.2" r="2.8"/>
<circle class="st1" cx="131.3" cy="435.5" r="2.8"/>
<circle class="st1" cx="1088.2" cy="221.2" r="2.8"/>
<circle class="st1" cx="1088.2" cy="435.5" r="2.8"/>
<line class="st2" x1="835.8" y1="223.5" x2="835.8" y2="210.7"/>
<line class="st2" x1="869.8" y1="223.5" x2="869.8" y2="210.7"/>
</svg>
