<?xml version="1.0" encoding="utf-8"?>
<!-- Generator: Adobe Illustrator 20.0.0, SVG Export Plug-In . SVG Version: 6.00 Build 0)  -->
<svg version="1.1" id="Layer_1" xmlns="http://www.w3.org/2000/svg" xmlns:xlink="http://www.w3.org/1999/xlink" x="0px" y="0px"
	 viewBox="0 0 1224 792" style="enable-background:new 0 0 1224 792;" xml:space="preserve">
<style type="text/css">
	.st0{fill-opacity:0;stroke:#000000;stroke-linecap:round;stroke-linejoin:round;}
	.st1{fill:none;stroke:#000000;stroke-linecap:round;stroke-linejoin:round;}
	.st2{fill:none;stroke:#000000;stroke-miterlimit:10;}
</style>
<title>SVG Picture created as 40+10 Keyboard-B.SilkS.svg date 2017/06/06 19:53:26</title>
<desc>Picture generated by PCBNEW</desc>
<g transform="translate(0 0) scale(1 1)">
</g>
<g>
	<path class="st0" d="M672.9,309"/>
	<path class="st0" d="M635.2,309"/>
	<path class="st0" d="M682.9,309v96.4"/>
	<path class="st0" d="M682.9,405.4h-58.1"/>
	<path class="st0" d="M624.9,405.4V309"/>
	<path class="st1" d="M682.9,309"/>
	<path class="st1" d="M624.9,309"/>
	<rect x="648.1" y="378.8" class="st1" width="15.6" height="14.2"/>
	<polyline class="st1" points="665.6,309 665.6,340.4 642.2,340.4 642.2,309 	"/>
	<path class="st1" d="M665.6,309"/>
	<path class="st1" d="M642.2,309"/>
	<line class="st1" x1="624.9" y1="309" x2="642.2" y2="309"/>
	<line class="st1" x1="665.6" y1="309" x2="682.9" y2="309"/>
</g>
<g>
	<path class="st0" d="M736.5,309"/>
	<path class="st0" d="M698.8,309"/>
	<path class="st0" d="M746.6,309v96.4"/>
	<path class="st0" d="M746.6,405.4h-58.1"/>
	<path class="st0" d="M688.5,405.4V309"/>
	<path class="st1" d="M746.6,309"/>
	<path class="st1" d="M688.5,309"/>
	<line class="st1" x1="688.5" y1="309" x2="700.6" y2="309"/>
	<line class="st1" x1="746.6" y1="309" x2="734.6" y2="309"/>
	<line class="st1" x1="700.6" y1="311.8" x2="694.2" y2="311.8"/>
	<line class="st1" x1="694.2" y1="311.8" x2="694.2" y2="401.1"/>
	<line class="st1" x1="734.6" y1="311.8" x2="740.9" y2="311.8"/>
	<line class="st1" x1="740.9" y1="311.8" x2="740.9" y2="401.1"/>
	<line class="st1" x1="694.2" y1="401.1" x2="740.9" y2="401.1"/>
	<line class="st2" x1="700.6" y1="309" x2="700.6" y2="311.8"/>
	<line class="st2" x1="734.6" y1="309" x2="734.6" y2="311.8"/>
</g>
</svg>
