<?xml version="1.0" encoding="utf-8"?>
<!-- Generator: Adobe Illustrator 20.0.0, SVG Export Plug-In . SVG Version: 6.00 Build 0)  -->
<svg version="1.1" id="Layer_1" xmlns="http://www.w3.org/2000/svg" xmlns:xlink="http://www.w3.org/1999/xlink" x="0px" y="0px"
	 viewBox="0 0 1224 792" style="enable-background:new 0 0 1224 792;" xml:space="preserve">
<style type="text/css">
	.st0{fill-opacity:0;stroke:#000000;stroke-linecap:round;stroke-linejoin:round;}
	.st1{fill:none;stroke:#000000;stroke-linecap:round;stroke-linejoin:round;}
	.st2{fill:none;stroke:#000000;stroke-miterlimit:10;}
</style>
<title>SVG Picture created as 40+10 Keyboard-Eco2.User.svg date 2017/06/06 17:59:47</title>
<desc>Picture generated by PCBNEW</desc>
<g transform="translate(0 0) scale(1 1)">
</g>
<g>
	<path class="st0" d="M1042.2,227.7h39.6"/>
	<path class="st0" d="M1081.8,227.7v39.6"/>
	<path class="st0" d="M1081.8,267.3h-39.6"/>
	<path class="st0" d="M1042.2,267.3v-39.6"/>
	<path class="st0" d="M1042.2,389.7h39.6"/>
	<path class="st0" d="M1081.8,389.7v39.6"/>
	<path class="st0" d="M1081.8,429.3h-39.6"/>
	<path class="st0" d="M1042.2,429.3v-39.6"/>
	<path class="st0" d="M137.7,389.7h39.6"/>
	<path class="st0" d="M177.3,389.7v39.6"/>
	<path class="st0" d="M177.3,429.3h-39.6"/>
	<path class="st0" d="M137.7,429.3v-39.6"/>
	<path class="st0" d="M191.7,389.7h39.6"/>
	<path class="st0" d="M231.3,389.7v39.6"/>
	<path class="st0" d="M231.3,429.3h-39.6"/>
	<path class="st0" d="M191.7,429.3v-39.6"/>
	<path class="st0" d="M245.7,389.7h39.6"/>
	<path class="st0" d="M285.3,389.7v39.6"/>
	<path class="st0" d="M285.3,429.3h-39.6"/>
	<path class="st0" d="M245.7,429.3v-39.6"/>
	<path class="st0" d="M306.4,389.7H346"/>
	<path class="st0" d="M346,389.7v39.6"/>
	<path class="st0" d="M346,429.3h-39.6"/>
	<path class="st0" d="M306.4,429.3v-39.6"/>
	<path class="st0" d="M440.5,429.3h-39.6"/>
	<path class="st0" d="M400.9,429.3v-6"/>
	<path class="st0" d="M400.9,423.3h-4.6"/>
	<path class="st0" d="M396.3,423.3v2.3"/>
	<path class="st0" d="M396.3,425.6h-18.9"/>
	<path class="st0" d="M377.5,425.6V416"/>
	<path class="st0" d="M377.5,416H375"/>
	<path class="st0" d="M375,416v-7.9"/>
	<path class="st0" d="M375,408.1h2.4"/>
	<path class="st0" d="M377.5,408.1v-17.3"/>
	<path class="st0" d="M377.5,390.8h3"/>
	<path class="st0" d="M380.4,390.8v-3.3"/>
	<path class="st0" d="M380.4,387.5h13"/>
	<path class="st0" d="M393.4,387.5v3.3"/>
	<path class="st0" d="M393.4,390.8h3"/>
	<path class="st0" d="M396.3,390.8v2.2"/>
	<path class="st0" d="M396.3,393h4.6"/>
	<path class="st0" d="M400.9,393v-3.3"/>
	<path class="st0" d="M400.9,389.7h39.6"/>
	<path class="st0" d="M440.5,389.7v3.3"/>
	<path class="st0" d="M440.5,393h4.6"/>
	<path class="st0" d="M445.2,393v-2.2"/>
	<path class="st0" d="M445.2,390.8h3"/>
	<path class="st0" d="M448.1,390.8v-3.3"/>
	<path class="st0" d="M448.1,387.5h13"/>
	<path class="st0" d="M461.1,387.5v3.3"/>
	<path class="st0" d="M461.1,390.8h3"/>
	<path class="st0" d="M464,390.8v17.3"/>
	<path class="st0" d="M464,408.1h2.4"/>
	<path class="st0" d="M466.5,408.1v7.9"/>
	<path class="st0" d="M466.5,416H464"/>
	<path class="st0" d="M464,416v9.6"/>
	<path class="st0" d="M464,425.6h-18.9"/>
	<path class="st0" d="M445.2,425.6v-2.3"/>
	<path class="st0" d="M445.2,423.3h-4.6"/>
	<path class="st0" d="M440.5,423.3v6"/>
	<path class="st0" d="M562,429.3h-39.6"/>
	<path class="st0" d="M522.4,429.3v-6"/>
	<path class="st0" d="M522.4,423.3h-4.6"/>
	<path class="st0" d="M517.8,423.3v2.3"/>
	<path class="st0" d="M517.8,425.6H499"/>
	<path class="st0" d="M499,425.6V416"/>
	<path class="st0" d="M499,416h-2.4"/>
	<path class="st0" d="M496.5,416v-7.9"/>
	<path class="st0" d="M496.5,408.1h2.4"/>
	<path class="st0" d="M499,408.1v-17.3"/>
	<path class="st0" d="M499,390.8h3"/>
	<path class="st0" d="M501.9,390.8v-3.3"/>
	<path class="st0" d="M501.9,387.5h13"/>
	<path class="st0" d="M514.9,387.5v3.3"/>
	<path class="st0" d="M514.9,390.8h3"/>
	<path class="st0" d="M517.8,390.8v2.2"/>
	<path class="st0" d="M517.8,393h4.6"/>
	<path class="st0" d="M522.4,393v-3.3"/>
	<path class="st0" d="M522.4,389.7H562"/>
	<path class="st0" d="M562,389.7v3.3"/>
	<path class="st0" d="M562,393h4.6"/>
	<path class="st0" d="M566.7,393v-2.2"/>
	<path class="st0" d="M566.7,390.8h3"/>
	<path class="st0" d="M569.6,390.8v-3.3"/>
	<path class="st0" d="M569.6,387.5h13"/>
	<path class="st0" d="M582.6,387.5v3.3"/>
	<path class="st0" d="M582.6,390.8h3"/>
	<path class="st0" d="M585.5,390.8v17.3"/>
	<path class="st0" d="M585.5,408.1h2.4"/>
	<path class="st0" d="M588,408.1v7.9"/>
	<path class="st0" d="M588,416h-2.4"/>
	<path class="st0" d="M585.5,416v9.6"/>
	<path class="st0" d="M585.5,425.6h-18.9"/>
	<path class="st0" d="M566.7,425.6v-2.3"/>
	<path class="st0" d="M566.7,423.3H562"/>
	<path class="st0" d="M562,423.3v6"/>
	<path class="st0" d="M616.9,389.7h39.6"/>
	<path class="st0" d="M656.5,389.7v39.6"/>
	<path class="st0" d="M656.5,429.3h-39.6"/>
	<path class="st0" d="M616.9,429.3v-39.6"/>
	<path class="st0" d="M677.7,389.7h39.6"/>
	<path class="st0" d="M717.3,389.7v39.6"/>
	<path class="st0" d="M717.3,429.3h-39.6"/>
	<path class="st0" d="M677.7,429.3v-39.6"/>
	<path class="st0" d="M731.7,389.7h39.6"/>
	<path class="st0" d="M771.3,389.7v39.6"/>
	<path class="st0" d="M771.3,429.3h-39.6"/>
	<path class="st0" d="M731.7,429.3v-39.6"/>
	<path class="st0" d="M785.7,389.7h39.6"/>
	<path class="st0" d="M825.3,389.7v39.6"/>
	<path class="st0" d="M825.3,429.3h-39.6"/>
	<path class="st0" d="M785.7,429.3v-39.6"/>
	<path class="st0" d="M880.2,389.7h39.6"/>
	<path class="st0" d="M919.8,389.7v39.6"/>
	<path class="st0" d="M919.8,429.3h-39.6"/>
	<path class="st0" d="M880.2,429.3v-39.6"/>
	<path class="st0" d="M934.2,389.7h39.6"/>
	<path class="st0" d="M973.8,389.7v39.6"/>
	<path class="st0" d="M973.8,429.3h-39.6"/>
	<path class="st0" d="M934.2,429.3v-39.6"/>
	<path class="st0" d="M988.2,389.7h39.6"/>
	<path class="st0" d="M1027.8,389.7v39.6"/>
	<path class="st0" d="M1027.8,429.3h-39.6"/>
	<path class="st0" d="M988.2,429.3v-39.6"/>
	<path class="st0" d="M157.9,335.7h39.6"/>
	<path class="st0" d="M197.5,335.7v39.6"/>
	<path class="st0" d="M197.5,375.3h-39.6"/>
	<path class="st0" d="M157.9,375.3v-39.6"/>
	<path class="st0" d="M232.2,335.7h39.6"/>
	<path class="st0" d="M271.8,335.7v39.6"/>
	<path class="st0" d="M271.8,375.3h-39.6"/>
	<path class="st0" d="M232.2,375.3v-39.6"/>
	<path class="st0" d="M286.2,335.7h39.6"/>
	<path class="st0" d="M325.8,335.7v39.6"/>
	<path class="st0" d="M325.8,375.3h-39.6"/>
	<path class="st0" d="M286.2,375.3v-39.6"/>
	<path class="st0" d="M340.2,335.7h39.6"/>
	<path class="st0" d="M379.8,335.7v39.6"/>
	<path class="st0" d="M379.8,375.3h-39.6"/>
	<path class="st0" d="M340.2,375.3v-39.6"/>
	<path class="st0" d="M394.2,335.7h39.6"/>
	<path class="st0" d="M433.8,335.7v39.6"/>
	<path class="st0" d="M433.8,375.3h-39.6"/>
	<path class="st0" d="M394.2,375.3v-39.6"/>
	<path class="st0" d="M448.2,335.7h39.6"/>
	<path class="st0" d="M487.8,335.7v39.6"/>
	<path class="st0" d="M487.8,375.3h-39.6"/>
	<path class="st0" d="M448.2,375.3v-39.6"/>
	<path class="st0" d="M502.2,335.7h39.6"/>
	<path class="st0" d="M541.8,335.7v39.6"/>
	<path class="st0" d="M541.8,375.3h-39.6"/>
	<path class="st0" d="M502.2,375.3v-39.6"/>
	<path class="st0" d="M556.2,335.7h39.6"/>
	<path class="st0" d="M595.8,335.7v39.6"/>
	<path class="st0" d="M595.8,375.3h-39.6"/>
	<path class="st0" d="M556.2,375.3v-39.6"/>
	<path class="st0" d="M610.2,335.7h39.6"/>
	<path class="st0" d="M649.8,335.7v39.6"/>
	<path class="st0" d="M649.8,375.3h-39.6"/>
	<path class="st0" d="M610.2,375.3v-39.6"/>
	<path class="st0" d="M664.2,335.7h39.6"/>
	<path class="st0" d="M703.8,335.7v39.6"/>
	<path class="st0" d="M703.8,375.3h-39.6"/>
	<path class="st0" d="M664.2,375.3v-39.6"/>
	<path class="st0" d="M751.9,335.7h39.6"/>
	<path class="st0" d="M791.5,335.7v6"/>
	<path class="st0" d="M791.5,341.7h4.6"/>
	<path class="st0" d="M796.2,341.7v-2.3"/>
	<path class="st0" d="M796.2,339.4H815"/>
	<path class="st0" d="M815,339.4v9.6"/>
	<path class="st0" d="M815,349h2.4"/>
	<path class="st0" d="M817.5,349v7.9"/>
	<path class="st0" d="M817.5,356.9H815"/>
	<path class="st0" d="M815,356.9v17.3"/>
	<path class="st0" d="M815,374.2h-3"/>
	<path class="st0" d="M812.1,374.2v3.3"/>
	<path class="st0" d="M812.1,377.5h-13"/>
	<path class="st0" d="M799.1,377.5v-3.3"/>
	<path class="st0" d="M799.1,374.2h-3"/>
	<path class="st0" d="M796.2,374.2V372"/>
	<path class="st0" d="M796.2,372h-4.6"/>
	<path class="st0" d="M791.5,372v3.3"/>
	<path class="st0" d="M791.5,375.3h-39.6"/>
	<path class="st0" d="M751.9,375.3V372"/>
	<path class="st0" d="M751.9,372h-4.6"/>
	<path class="st0" d="M747.3,372v2.2"/>
	<path class="st0" d="M747.3,374.2h-3"/>
	<path class="st0" d="M744.4,374.2v3.3"/>
	<path class="st0" d="M744.4,377.5h-13"/>
	<path class="st0" d="M731.4,377.5v-3.3"/>
	<path class="st0" d="M731.4,374.2h-3"/>
	<path class="st0" d="M728.5,374.2v-17.3"/>
	<path class="st0" d="M728.5,356.9H726"/>
	<path class="st0" d="M726,356.9V349"/>
	<path class="st0" d="M726,349h2.4"/>
	<path class="st0" d="M728.5,349v-9.6"/>
	<path class="st0" d="M728.5,339.4h18.9"/>
	<path class="st0" d="M747.3,339.4v2.3"/>
	<path class="st0" d="M747.3,341.7h4.6"/>
	<path class="st0" d="M751.9,341.7v-6"/>
	<path class="st0" d="M880.2,335.7h39.6"/>
	<path class="st0" d="M919.8,335.7v39.6"/>
	<path class="st0" d="M919.8,375.3h-39.6"/>
	<path class="st0" d="M880.2,375.3v-39.6"/>
	<path class="st0" d="M934.2,335.7h39.6"/>
	<path class="st0" d="M973.8,335.7v39.6"/>
	<path class="st0" d="M973.8,375.3h-39.6"/>
	<path class="st0" d="M934.2,375.3v-39.6"/>
	<path class="st0" d="M988.2,335.7h39.6"/>
	<path class="st0" d="M1027.8,335.7v39.6"/>
	<path class="st0" d="M1027.8,375.3h-39.6"/>
	<path class="st0" d="M988.2,375.3v-39.6"/>
	<path class="st0" d="M1042.2,335.7h39.6"/>
	<path class="st0" d="M1081.8,335.7v39.6"/>
	<path class="st0" d="M1081.8,375.3h-39.6"/>
	<path class="st0" d="M1042.2,375.3v-39.6"/>
	<path class="st0" d="M144.4,281.7H184"/>
	<path class="st0" d="M184,281.7v39.6"/>
	<path class="st0" d="M184,321.3h-39.6"/>
	<path class="st0" d="M144.4,321.3v-39.6"/>
	<path class="st0" d="M205.2,281.7h39.6"/>
	<path class="st0" d="M244.8,281.7v39.6"/>
	<path class="st0" d="M244.8,321.3h-39.6"/>
	<path class="st0" d="M205.2,321.3v-39.6"/>
	<path class="st0" d="M259.2,281.7h39.6"/>
	<path class="st0" d="M298.8,281.7v39.6"/>
	<path class="st0" d="M298.8,321.3h-39.6"/>
	<path class="st0" d="M259.2,321.3v-39.6"/>
	<path class="st0" d="M313.2,281.7h39.6"/>
	<path class="st0" d="M352.8,281.7v39.6"/>
	<path class="st0" d="M352.8,321.3h-39.6"/>
	<path class="st0" d="M313.2,321.3v-39.6"/>
	<path class="st0" d="M367.2,281.7h39.6"/>
	<path class="st0" d="M406.8,281.7v39.6"/>
	<path class="st0" d="M406.8,321.3h-39.6"/>
	<path class="st0" d="M367.2,321.3v-39.6"/>
	<path class="st0" d="M421.2,281.7h39.6"/>
	<path class="st0" d="M460.8,281.7v39.6"/>
	<path class="st0" d="M460.8,321.3h-39.6"/>
	<path class="st0" d="M421.2,321.3v-39.6"/>
	<path class="st0" d="M475.2,281.7h39.6"/>
	<path class="st0" d="M514.8,281.7v39.6"/>
	<path class="st0" d="M514.8,321.3h-39.6"/>
	<path class="st0" d="M475.2,321.3v-39.6"/>
	<path class="st0" d="M529.2,281.7h39.6"/>
	<path class="st0" d="M568.8,281.7v39.6"/>
	<path class="st0" d="M568.8,321.3h-39.6"/>
	<path class="st0" d="M529.2,321.3v-39.6"/>
	<path class="st0" d="M583.2,281.7h39.6"/>
	<path class="st0" d="M622.8,281.7v39.6"/>
	<path class="st0" d="M622.8,321.3h-39.6"/>
	<path class="st0" d="M583.2,321.3v-39.6"/>
	<path class="st0" d="M637.2,281.7h39.6"/>
	<path class="st0" d="M676.8,281.7v39.6"/>
	<path class="st0" d="M676.8,321.3h-39.6"/>
	<path class="st0" d="M637.2,321.3v-39.6"/>
	<path class="st0" d="M691.2,281.7h39.6"/>
	<path class="st0" d="M730.8,281.7v39.6"/>
	<path class="st0" d="M730.8,321.3h-39.6"/>
	<path class="st0" d="M691.2,321.3v-39.6"/>
	<path class="st0" d="M765.4,281.7H805"/>
	<path class="st0" d="M805,281.7v39.6"/>
	<path class="st0" d="M805,321.3h-39.6"/>
	<path class="st0" d="M765.4,321.3v-39.6"/>
	<path class="st0" d="M880.2,281.7h39.6"/>
	<path class="st0" d="M919.8,281.7v39.6"/>
	<path class="st0" d="M919.8,321.3h-39.6"/>
	<path class="st0" d="M880.2,321.3v-39.6"/>
	<path class="st0" d="M934.2,281.7h39.6"/>
	<path class="st0" d="M973.8,281.7v39.6"/>
	<path class="st0" d="M973.8,321.3h-39.6"/>
	<path class="st0" d="M934.2,321.3v-39.6"/>
	<path class="st0" d="M988.2,281.7h39.6"/>
	<path class="st0" d="M1027.8,281.7v39.6"/>
	<path class="st0" d="M1027.8,321.3h-39.6"/>
	<path class="st0" d="M988.2,321.3v-39.6"/>
	<path class="st0" d="M1042.2,281.7h39.6"/>
	<path class="st0" d="M1081.8,281.7v39.6"/>
	<path class="st0" d="M1081.8,321.3h-39.6"/>
	<path class="st0" d="M1042.2,321.3v-39.6"/>
	<path class="st0" d="M137.7,227.7h39.6"/>
	<path class="st0" d="M177.3,227.7v39.6"/>
	<path class="st0" d="M177.3,267.3h-39.6"/>
	<path class="st0" d="M137.7,267.3v-39.6"/>
	<path class="st0" d="M191.7,227.7h39.6"/>
	<path class="st0" d="M231.3,227.7v39.6"/>
	<path class="st0" d="M231.3,267.3h-39.6"/>
	<path class="st0" d="M191.7,267.3v-39.6"/>
	<path class="st0" d="M245.7,227.7h39.6"/>
	<path class="st0" d="M285.3,227.7v39.6"/>
	<path class="st0" d="M285.3,267.3h-39.6"/>
	<path class="st0" d="M245.7,267.3v-39.6"/>
	<path class="st0" d="M299.7,227.7h39.6"/>
	<path class="st0" d="M339.3,227.7v39.6"/>
	<path class="st0" d="M339.3,267.3h-39.6"/>
	<path class="st0" d="M299.7,267.3v-39.6"/>
	<path class="st0" d="M353.7,227.7h39.6"/>
	<path class="st0" d="M393.3,227.7v39.6"/>
	<path class="st0" d="M393.3,267.3h-39.6"/>
	<path class="st0" d="M353.7,267.3v-39.6"/>
	<path class="st0" d="M407.7,227.7h39.6"/>
	<path class="st0" d="M447.3,227.7v39.6"/>
	<path class="st0" d="M447.3,267.3h-39.6"/>
	<path class="st0" d="M407.7,267.3v-39.6"/>
	<path class="st0" d="M461.7,227.7h39.6"/>
	<path class="st0" d="M501.3,227.7v39.6"/>
	<path class="st0" d="M501.3,267.3h-39.6"/>
	<path class="st0" d="M461.7,267.3v-39.6"/>
	<path class="st0" d="M515.7,227.7h39.6"/>
	<path class="st0" d="M555.3,227.7v39.6"/>
	<path class="st0" d="M555.3,267.3h-39.6"/>
	<path class="st0" d="M515.7,267.3v-39.6"/>
	<path class="st0" d="M569.7,227.7h39.6"/>
	<path class="st0" d="M609.3,227.7v39.6"/>
	<path class="st0" d="M609.3,267.3h-39.6"/>
	<path class="st0" d="M569.7,267.3v-39.6"/>
	<path class="st0" d="M623.7,227.7h39.6"/>
	<path class="st0" d="M663.3,227.7v39.6"/>
	<path class="st0" d="M663.3,267.3h-39.6"/>
	<path class="st0" d="M623.7,267.3v-39.6"/>
	<path class="st0" d="M677.7,227.7h39.6"/>
	<path class="st0" d="M717.3,227.7v39.6"/>
	<path class="st0" d="M717.3,267.3h-39.6"/>
	<path class="st0" d="M677.7,267.3v-39.6"/>
	<path class="st0" d="M731.7,227.7h39.6"/>
	<path class="st0" d="M771.3,227.7v39.6"/>
	<path class="st0" d="M771.3,267.3h-39.6"/>
	<path class="st0" d="M731.7,267.3v-39.6"/>
	<path class="st0" d="M785.7,227.7h39.6"/>
	<path class="st0" d="M825.3,227.7v39.6"/>
	<path class="st0" d="M825.3,267.3h-39.6"/>
	<path class="st0" d="M785.7,267.3v-39.6"/>
	<path class="st0" d="M880.2,227.7h39.6"/>
	<path class="st0" d="M919.8,227.7v39.6"/>
	<path class="st0" d="M919.8,267.3h-39.6"/>
	<path class="st0" d="M880.2,267.3v-39.6"/>
	<path class="st0" d="M934.2,227.7h39.6"/>
	<path class="st0" d="M973.8,227.7v39.6"/>
	<path class="st0" d="M973.8,267.3h-39.6"/>
	<path class="st0" d="M934.2,267.3v-39.6"/>
	<path class="st0" d="M988.2,227.7h39.6"/>
	<path class="st0" d="M1027.8,227.7v39.6"/>
	<path class="st0" d="M1027.8,267.3h-39.6"/>
	<path class="st0" d="M988.2,267.3v-39.6"/>
</g>
<g>
	<path class="st0" d="M1098.7,438.5v-220"/>
	<path class="st0" d="M1091.7,446.2l7-7.7"/>
	<path class="st0" d="M127.8,446.2h963.9"/>
	<path class="st0" d="M120.8,438.5l6.9,7.7"/>
	<path class="st0" d="M120.8,218.5v220"/>
	<path class="st0" d="M127.8,210.8l-6.9,7.7"/>
	<path class="st0" d="M1091.7,210.8H127.8"/>
	<path class="st0" d="M1098.7,218.5l-7-7.7"/>
</g>
<circle class="st1" cx="778.5" cy="438.5" r="2.8"/>
<circle class="st1" cx="609.3" cy="438.5" r="2.8"/>
<circle class="st1" cx="353.7" cy="438.5" r="2.8"/>
<circle class="st1" cx="927" cy="438.5" r="2.8"/>
<circle class="st1" cx="927" cy="218.5" r="2.8"/>
<circle class="st1" cx="778.5" cy="218.5" r="2.8"/>
<circle class="st1" cx="346.5" cy="218.5" r="2.8"/>
<circle class="st1" cx="616.5" cy="218.5" r="2.8"/>
<circle class="st1" cx="131.3" cy="221.3" r="2.8"/>
<circle class="st1" cx="131.3" cy="435.6" r="2.8"/>
<circle class="st1" cx="1088.2" cy="221.3" r="2.8"/>
<circle class="st1" cx="1088.2" cy="435.6" r="2.8"/>
<rect x="849.9" y="244.7" class="st2" width="5.7" height="5.7"/>
<rect x="849.9" y="298.7" class="st2" width="5.7" height="5.7"/>
<rect x="849.9" y="352.7" class="st2" width="5.7" height="5.7"/>
<rect x="849.9" y="406.7" class="st2" width="5.7" height="5.7"/>
</svg>
