<?xml version="1.0" encoding="utf-8"?>
<!-- Generator: Adobe Illustrator 20.0.0, SVG Export Plug-In . SVG Version: 6.00 Build 0)  -->
<svg version="1.1" id="Layer_1" xmlns="http://www.w3.org/2000/svg" xmlns:xlink="http://www.w3.org/1999/xlink" x="0px" y="0px"
	 viewBox="0 0 1224 792" style="enable-background:new 0 0 1224 792;" xml:space="preserve">
<style type="text/css">
	.st0{fill-opacity:0;stroke:#000000;stroke-linecap:round;stroke-linejoin:round;}
	.st1{fill:none;stroke:#000000;stroke-linecap:round;stroke-linejoin:round;}
	.st2{fill:none;stroke:#000000;stroke-miterlimit:10;}
</style>
<title>SVG Picture created as 40+10 Keyboard-Edge.Cuts.svg date 2017/06/06 17:59:47</title>
<desc>Picture generated by PCBNEW</desc>
<g transform="translate(0 0) scale(1 1)">
</g>
<path class="st0" d="M1085.9,376.7v-96.4"/>
<path class="st0" d="M190.3,433.4h838.9"/>
<path class="st0" d="M133.6,280.3v96.4"/>
<path class="st0" d="M830,223.6H190.3"/>
<path class="st0" d="M830,223.6"/>
<path class="st0" d="M875.4,223.6"/>
<path class="st0" d="M1029.2,223.6H875.4"/>
<g>
	<path class="st0" d="M1098.6,438.4v-220"/>
	<path class="st0" d="M1091.6,446.2l7-7.7"/>
	<path class="st0" d="M127.7,446.2h963.9"/>
	<path class="st0" d="M120.8,438.4l6.9,7.7"/>
	<path class="st0" d="M120.8,218.4v220"/>
	<path class="st0" d="M127.7,210.8l-6.9,7.6"/>
	<path class="st0" d="M830,210.8H127.7"/>
	<path class="st0" d="M830,210.8"/>
	<path class="st0" d="M875.4,210.8"/>
	<path class="st0" d="M1091.6,210.8H875.4"/>
	<path class="st0" d="M1098.6,218.4l-7-7.6"/>
</g>
<circle class="st1" cx="778.5" cy="438.5" r="2.1"/>
<circle class="st1" cx="609.3" cy="438.5" r="2.1"/>
<circle class="st1" cx="353.7" cy="438.5" r="2.1"/>
<circle class="st1" cx="927" cy="438.5" r="2.1"/>
<circle class="st1" cx="927" cy="218.5" r="2.1"/>
<circle class="st1" cx="778.5" cy="218.5" r="2.1"/>
<circle class="st1" cx="346.5" cy="218.5" r="2.1"/>
<circle class="st1" cx="616.5" cy="218.5" r="2.1"/>
<circle class="st1" cx="131.3" cy="221.3" r="2.1"/>
<circle class="st1" cx="131.3" cy="435.6" r="2.1"/>
<circle class="st1" cx="1088.2" cy="221.3" r="2.1"/>
<circle class="st1" cx="1088.2" cy="435.6" r="2.1"/>
<line class="st2" x1="875.4" y1="223.6" x2="875.4" y2="210.8"/>
<line class="st2" x1="830" y1="223.6" x2="830" y2="210.8"/>
<g>
	<path class="st0" d="M276,282"/>
	<path class="st0" d="M238.3,282"/>
	<path class="st0" d="M286.1,282v96.4"/>
	<path class="st0" d="M286.1,378.4H228"/>
	<path class="st0" d="M228,378.4V282"/>
	<line class="st1" x1="228" y1="282" x2="286.1" y2="282"/>
	<rect x="252.6" y="353.2" class="st1" width="12.8" height="11.3"/>
</g>
<g>
	<path class="st0" d="M359,282"/>
	<path class="st0" d="M369,282v96.4"/>
	<path class="st0" d="M369,378.4h-58.1"/>
	<path class="st0" d="M311,378.4V282"/>
	<path class="st1" d="M369,282"/>
	<path class="st1" d="M311,282"/>
	<rect x="335.5" y="353.2" class="st1" width="12.8" height="11.3"/>
	<polyline class="st1" points="351.6,282 351.6,313.4 328.2,313.4 328.2,282 	"/>
	<line class="st1" x1="311" y1="282" x2="328.2" y2="282"/>
	<line class="st1" x1="351.6" y1="282" x2="369" y2="282"/>
</g>
<line class="st1" x1="190.3" y1="223.6" x2="190.3" y2="270.3"/>
<line class="st1" x1="133.6" y1="280.3" x2="180.3" y2="280.3"/>
<polyline class="st1" points="159,246.9 170.7,258.6 168.6,260.7 156.9,249 "/>
<polyline class="st1" points="154.8,246.9 143.2,235.3 145.3,233.2 156.9,244.8 "/>
<polyline class="st1" points="156.9,249 145.3,260.7 143.2,258.6 154.8,246.9 "/>
<polyline class="st1" points="156.9,244.8 168.6,233.2 170.7,235.3 159,246.9 "/>
<line class="st1" x1="180.3" y1="280.3" x2="190.3" y2="270.3"/>
<line class="st1" x1="133.6" y1="376.7" x2="180.3" y2="376.7"/>
<line class="st1" x1="190.3" y1="433.4" x2="190.3" y2="386.7"/>
<polyline class="st1" points="156.9,408 168.6,396.3 170.7,398.4 159,410.1 "/>
<polyline class="st1" points="156.9,412.2 145.3,423.8 143.2,421.7 154.8,410.1 "/>
<polyline class="st1" points="159,410.1 170.7,421.7 168.6,423.8 156.9,412.2 "/>
<polyline class="st1" points="154.8,410.1 143.2,398.4 145.3,396.3 156.9,408 "/>
<line class="st1" x1="190.3" y1="386.7" x2="180.3" y2="376.7"/>
<line class="st1" x1="1085.9" y1="280.3" x2="1039.2" y2="280.3"/>
<line class="st1" x1="1029.2" y1="223.6" x2="1029.2" y2="270.3"/>
<polyline class="st1" points="1062.6,249 1050.9,260.7 1048.8,258.6 1060.5,246.9 "/>
<polyline class="st1" points="1062.6,244.8 1074.2,233.2 1076.3,235.3 1064.7,246.9 "/>
<polyline class="st1" points="1060.5,246.9 1048.8,235.3 1050.9,233.2 1062.6,244.8 "/>
<polyline class="st1" points="1064.7,246.9 1076.3,258.6 1074.2,260.7 1062.6,249 "/>
<line class="st1" x1="1029.2" y1="270.3" x2="1039.2" y2="280.3"/>
<line class="st1" x1="1029.2" y1="433.4" x2="1029.2" y2="386.7"/>
<line class="st1" x1="1085.9" y1="376.7" x2="1039.2" y2="376.7"/>
<polyline class="st1" points="1060.5,410.1 1048.8,398.4 1050.9,396.3 1062.6,408 "/>
<polyline class="st1" points="1064.7,410.1 1076.3,421.7 1074.2,423.8 1062.6,412.2 "/>
<polyline class="st1" points="1062.6,408 1074.2,396.3 1076.3,398.4 1064.7,410.1 "/>
<polyline class="st1" points="1062.6,412.2 1050.9,423.8 1048.8,421.7 1060.5,410.1 "/>
<line class="st1" x1="1039.2" y1="376.7" x2="1029.2" y2="386.7"/>
<g>
	<line class="st1" x1="480.2" y1="284.8" x2="480.2" y2="287.7"/>
	<line class="st1" x1="480.2" y1="284.8" x2="514.3" y2="284.8"/>
	<line class="st1" x1="514.3" y1="284.8" x2="514.3" y2="287.7"/>
	<line class="st1" x1="498.8" y1="301.8" x2="504.3" y2="301.8"/>
	<line class="st1" x1="490.2" y1="301.8" x2="495.7" y2="301.8"/>
	<line class="st1" x1="490.2" y1="301.8" x2="490.2" y2="299"/>
	<line class="st1" x1="504.3" y1="301.8" x2="504.3" y2="299"/>
	<path class="st1" d="M490.2,299"/>
	<path class="st1" d="M480.2,287.7"/>
	<path class="st1" d="M514.3,287.7"/>
	<path class="st1" d="M504.3,299"/>
	<line class="st1" x1="480.2" y1="287.7" x2="471.7" y2="287.7"/>
	<line class="st1" x1="522.8" y1="287.7" x2="514.3" y2="287.7"/>
	<line class="st1" x1="490.2" y1="299" x2="484.5" y2="299"/>
	<line class="st1" x1="510" y1="299" x2="504.3" y2="299"/>
	<line class="st1" x1="471.7" y1="287.7" x2="484.5" y2="299"/>
	<line class="st1" x1="510" y1="299" x2="522.8" y2="287.7"/>
	<line class="st1" x1="495.7" y1="293.3" x2="498.8" y2="293.3"/>
	<line class="st1" x1="495.7" y1="293.3" x2="495.7" y2="301.8"/>
	<line class="st1" x1="498.8" y1="293.3" x2="498.8" y2="301.8"/>
</g>
<g>
	<line class="st1" x1="558.7" y1="302.5" x2="558.7" y2="299.7"/>
	<line class="st1" x1="540.1" y1="302.5" x2="524.7" y2="302.5"/>
	<line class="st1" x1="558.7" y1="302.5" x2="543.2" y2="302.5"/>
	<line class="st1" x1="524.7" y1="302.5" x2="524.7" y2="299.7"/>
	<line class="st1" x1="548.8" y1="285.5" x2="534.6" y2="285.5"/>
	<line class="st1" x1="548.8" y1="285.5" x2="548.8" y2="288.3"/>
	<line class="st1" x1="534.6" y1="285.5" x2="534.6" y2="288.3"/>
	<path class="st1" d="M548.8,288.3"/>
	<path class="st1" d="M558.7,299.7"/>
	<path class="st1" d="M524.7,299.7"/>
	<path class="st1" d="M534.6,288.3"/>
	<line class="st1" x1="558.7" y1="299.7" x2="567.2" y2="299.7"/>
	<line class="st1" x1="516.2" y1="299.7" x2="524.7" y2="299.7"/>
	<line class="st1" x1="548.8" y1="288.3" x2="554.4" y2="288.3"/>
	<line class="st1" x1="528.9" y1="288.3" x2="534.6" y2="288.3"/>
	<line class="st1" x1="567.2" y1="299.7" x2="554.4" y2="288.3"/>
	<line class="st1" x1="528.9" y1="288.3" x2="516.2" y2="299.7"/>
	<line class="st1" x1="543.2" y1="294" x2="540.1" y2="294"/>
	<line class="st1" x1="543.2" y1="294" x2="543.2" y2="302.5"/>
	<line class="st1" x1="540.1" y1="294" x2="540.1" y2="302.5"/>
</g>
<g>
	<line class="st1" x1="480.4" y1="266" x2="480.4" y2="268.8"/>
	<line class="st1" x1="480.4" y1="266" x2="514.5" y2="266"/>
	<line class="st1" x1="514.5" y1="266" x2="514.5" y2="268.8"/>
	<line class="st1" x1="499" y1="283" x2="504.5" y2="283"/>
	<line class="st1" x1="490.4" y1="283" x2="495.9" y2="283"/>
	<line class="st1" x1="490.4" y1="283" x2="490.4" y2="280.2"/>
	<line class="st1" x1="504.5" y1="283" x2="504.5" y2="280.2"/>
	<path class="st1" d="M490.4,280.2"/>
	<path class="st1" d="M480.4,268.8"/>
	<path class="st1" d="M514.5,268.8"/>
	<path class="st1" d="M504.5,280.2"/>
	<line class="st1" x1="480.4" y1="268.8" x2="471.9" y2="268.8"/>
	<line class="st1" x1="523" y1="268.8" x2="514.5" y2="268.8"/>
	<line class="st1" x1="490.4" y1="280.2" x2="484.7" y2="280.2"/>
	<line class="st1" x1="510.2" y1="280.2" x2="504.5" y2="280.2"/>
	<line class="st1" x1="471.9" y1="268.8" x2="484.7" y2="280.2"/>
	<line class="st1" x1="510.2" y1="280.2" x2="523" y2="268.8"/>
	<line class="st1" x1="495.9" y1="274.5" x2="499" y2="274.5"/>
	<line class="st1" x1="495.9" y1="274.5" x2="495.9" y2="283"/>
	<line class="st1" x1="499" y1="274.5" x2="499" y2="283"/>
</g>
<g>
	<line class="st1" x1="558.9" y1="283.7" x2="558.9" y2="280.8"/>
	<line class="st1" x1="540.3" y1="283.7" x2="524.9" y2="283.7"/>
	<line class="st1" x1="558.9" y1="283.7" x2="543.4" y2="283.7"/>
	<line class="st1" x1="524.9" y1="283.7" x2="524.9" y2="280.8"/>
	<line class="st1" x1="549" y1="266.7" x2="534.8" y2="266.7"/>
	<line class="st1" x1="549" y1="266.7" x2="549" y2="269.5"/>
	<line class="st1" x1="534.8" y1="266.7" x2="534.8" y2="269.5"/>
	<path class="st1" d="M549,269.5"/>
	<path class="st1" d="M558.9,280.8"/>
	<path class="st1" d="M524.9,280.8"/>
	<path class="st1" d="M534.8,269.5"/>
	<line class="st1" x1="558.9" y1="280.8" x2="567.4" y2="280.8"/>
	<line class="st1" x1="516.4" y1="280.8" x2="524.9" y2="280.8"/>
	<line class="st1" x1="549" y1="269.5" x2="554.6" y2="269.5"/>
	<line class="st1" x1="529.1" y1="269.5" x2="534.8" y2="269.5"/>
	<line class="st1" x1="567.4" y1="280.8" x2="554.6" y2="269.5"/>
	<line class="st1" x1="529.1" y1="269.5" x2="516.4" y2="280.8"/>
	<line class="st1" x1="543.4" y1="275.2" x2="540.3" y2="275.2"/>
	<line class="st1" x1="543.4" y1="275.2" x2="543.4" y2="283.7"/>
	<line class="st1" x1="540.3" y1="275.2" x2="540.3" y2="283.7"/>
</g>
<g>
	<line class="st1" x1="480.4" y1="246.3" x2="480.4" y2="249.2"/>
	<line class="st1" x1="480.4" y1="246.3" x2="514.5" y2="246.3"/>
	<line class="st1" x1="514.5" y1="246.3" x2="514.5" y2="249.2"/>
	<line class="st1" x1="499" y1="263.3" x2="504.5" y2="263.3"/>
	<line class="st1" x1="490.4" y1="263.3" x2="495.9" y2="263.3"/>
	<line class="st1" x1="490.4" y1="263.3" x2="490.4" y2="260.5"/>
	<line class="st1" x1="504.5" y1="263.3" x2="504.5" y2="260.5"/>
	<path class="st1" d="M490.4,260.5"/>
	<path class="st1" d="M480.4,249.2"/>
	<path class="st1" d="M514.5,249.2"/>
	<path class="st1" d="M504.5,260.5"/>
	<line class="st1" x1="480.4" y1="249.2" x2="471.9" y2="249.2"/>
	<line class="st1" x1="523" y1="249.2" x2="514.5" y2="249.2"/>
	<line class="st1" x1="490.4" y1="260.5" x2="484.7" y2="260.5"/>
	<line class="st1" x1="510.2" y1="260.5" x2="504.5" y2="260.5"/>
	<line class="st1" x1="471.9" y1="249.2" x2="484.7" y2="260.5"/>
	<line class="st1" x1="510.2" y1="260.5" x2="523" y2="249.2"/>
	<line class="st1" x1="495.9" y1="254.8" x2="499" y2="254.8"/>
	<line class="st1" x1="495.9" y1="254.8" x2="495.9" y2="263.3"/>
	<line class="st1" x1="499" y1="254.8" x2="499" y2="263.3"/>
</g>
<g>
	<line class="st1" x1="558.9" y1="264" x2="558.9" y2="261.2"/>
	<line class="st1" x1="540.3" y1="264" x2="524.9" y2="264"/>
	<line class="st1" x1="558.9" y1="264" x2="543.4" y2="264"/>
	<line class="st1" x1="524.9" y1="264" x2="524.9" y2="261.2"/>
	<line class="st1" x1="549" y1="247" x2="534.8" y2="247"/>
	<line class="st1" x1="549" y1="247" x2="549" y2="249.8"/>
	<line class="st1" x1="534.8" y1="247" x2="534.8" y2="249.8"/>
	<path class="st1" d="M549,249.8"/>
	<path class="st1" d="M558.9,261.2"/>
	<path class="st1" d="M524.9,261.2"/>
	<path class="st1" d="M534.8,249.8"/>
	<line class="st1" x1="558.9" y1="261.2" x2="567.4" y2="261.2"/>
	<line class="st1" x1="516.4" y1="261.2" x2="524.9" y2="261.2"/>
	<line class="st1" x1="549" y1="249.8" x2="554.6" y2="249.8"/>
	<line class="st1" x1="529.1" y1="249.8" x2="534.8" y2="249.8"/>
	<line class="st1" x1="567.4" y1="261.2" x2="554.6" y2="249.8"/>
	<line class="st1" x1="529.1" y1="249.8" x2="516.4" y2="261.2"/>
	<line class="st1" x1="543.4" y1="255.5" x2="540.3" y2="255.5"/>
	<line class="st1" x1="543.4" y1="255.5" x2="543.4" y2="264"/>
	<line class="st1" x1="540.3" y1="255.5" x2="540.3" y2="264"/>
</g>
<g>
	<line class="st1" x1="481.5" y1="304.3" x2="481.5" y2="307.2"/>
	<line class="st1" x1="481.5" y1="304.3" x2="515.5" y2="304.3"/>
	<line class="st1" x1="515.5" y1="304.3" x2="515.5" y2="307.2"/>
	<line class="st1" x1="500" y1="321.3" x2="505.5" y2="321.3"/>
	<line class="st1" x1="491.4" y1="321.3" x2="496.9" y2="321.3"/>
	<line class="st1" x1="491.4" y1="321.3" x2="491.4" y2="318.5"/>
	<line class="st1" x1="505.5" y1="321.3" x2="505.5" y2="318.5"/>
	<path class="st1" d="M491.4,318.5"/>
	<path class="st1" d="M481.5,307.2"/>
	<path class="st1" d="M515.5,307.2"/>
	<path class="st1" d="M505.5,318.5"/>
	<line class="st1" x1="481.5" y1="307.2" x2="472.9" y2="307.2"/>
	<line class="st1" x1="524" y1="307.2" x2="515.5" y2="307.2"/>
	<line class="st1" x1="491.4" y1="318.5" x2="485.7" y2="318.5"/>
	<line class="st1" x1="511.2" y1="318.5" x2="505.5" y2="318.5"/>
	<line class="st1" x1="472.9" y1="307.2" x2="485.7" y2="318.5"/>
	<line class="st1" x1="511.2" y1="318.5" x2="524" y2="307.2"/>
	<line class="st1" x1="496.9" y1="312.8" x2="500" y2="312.8"/>
	<line class="st1" x1="496.9" y1="312.8" x2="496.9" y2="321.3"/>
	<line class="st1" x1="500" y1="312.8" x2="500" y2="321.3"/>
</g>
<g>
	<line class="st1" x1="559.9" y1="322" x2="559.9" y2="319.2"/>
	<line class="st1" x1="541.3" y1="322" x2="525.9" y2="322"/>
	<line class="st1" x1="559.9" y1="322" x2="544.4" y2="322"/>
	<line class="st1" x1="525.9" y1="322" x2="525.9" y2="319.2"/>
	<line class="st1" x1="550" y1="305" x2="535.8" y2="305"/>
	<line class="st1" x1="550" y1="305" x2="550" y2="307.8"/>
	<line class="st1" x1="535.8" y1="305" x2="535.8" y2="307.8"/>
	<path class="st1" d="M550,307.8"/>
	<path class="st1" d="M559.9,319.2"/>
	<path class="st1" d="M525.9,319.2"/>
	<path class="st1" d="M535.8,307.8"/>
	<line class="st1" x1="559.9" y1="319.2" x2="568.4" y2="319.2"/>
	<line class="st1" x1="517.4" y1="319.2" x2="525.9" y2="319.2"/>
	<line class="st1" x1="550" y1="307.8" x2="555.6" y2="307.8"/>
	<line class="st1" x1="530.1" y1="307.8" x2="535.8" y2="307.8"/>
	<line class="st1" x1="568.4" y1="319.2" x2="555.6" y2="307.8"/>
	<line class="st1" x1="530.1" y1="307.8" x2="517.4" y2="319.2"/>
	<line class="st1" x1="544.4" y1="313.5" x2="541.3" y2="313.5"/>
	<line class="st1" x1="544.4" y1="313.5" x2="544.4" y2="322"/>
	<line class="st1" x1="541.3" y1="313.5" x2="541.3" y2="322"/>
</g>
<g>
	<line class="st1" x1="388" y1="334.8" x2="388" y2="337.6"/>
	<line class="st1" x1="388" y1="334.8" x2="422" y2="334.8"/>
	<line class="st1" x1="422" y1="334.8" x2="422" y2="337.6"/>
	<line class="st1" x1="406.6" y1="368.8" x2="412.1" y2="368.8"/>
	<line class="st1" x1="397.9" y1="368.8" x2="403.4" y2="368.8"/>
	<line class="st1" x1="397.9" y1="368.8" x2="397.9" y2="365.9"/>
	<line class="st1" x1="412.1" y1="368.8" x2="412.1" y2="365.9"/>
	<path class="st1" d="M397.9,365.9"/>
	<path class="st1" d="M388,337.6"/>
	<path class="st1" d="M422,337.6"/>
	<path class="st1" d="M412.1,365.9"/>
	<line class="st1" x1="388" y1="337.6" x2="379.5" y2="337.6"/>
	<line class="st1" x1="430.5" y1="337.6" x2="422" y2="337.6"/>
	<line class="st1" x1="397.9" y1="365.9" x2="392.3" y2="365.9"/>
	<line class="st1" x1="417.8" y1="365.9" x2="412.1" y2="365.9"/>
	<line class="st1" x1="379.5" y1="337.6" x2="392.3" y2="365.9"/>
	<line class="st1" x1="417.8" y1="365.9" x2="430.5" y2="337.6"/>
	<line class="st1" x1="403.4" y1="351.8" x2="406.6" y2="351.8"/>
	<line class="st1" x1="403.4" y1="351.8" x2="403.4" y2="368.8"/>
	<line class="st1" x1="406.6" y1="351.8" x2="406.6" y2="368.8"/>
</g>
<g>
	<line class="st1" x1="465.8" y1="368.8" x2="465.8" y2="365.9"/>
	<line class="st1" x1="447.2" y1="368.8" x2="431.8" y2="368.8"/>
	<line class="st1" x1="465.8" y1="368.8" x2="450.3" y2="368.8"/>
	<line class="st1" x1="431.8" y1="368.8" x2="431.8" y2="365.9"/>
	<line class="st1" x1="455.8" y1="334.8" x2="441.7" y2="334.8"/>
	<line class="st1" x1="455.8" y1="334.8" x2="455.8" y2="337.6"/>
	<line class="st1" x1="441.7" y1="334.8" x2="441.7" y2="337.6"/>
	<path class="st1" d="M455.8,337.6"/>
	<path class="st1" d="M465.8,365.9"/>
	<path class="st1" d="M431.8,365.9"/>
	<path class="st1" d="M441.7,337.6"/>
	<line class="st1" x1="465.8" y1="365.9" x2="474.3" y2="365.9"/>
	<line class="st1" x1="423.2" y1="365.9" x2="431.8" y2="365.9"/>
	<line class="st1" x1="455.8" y1="337.6" x2="461.5" y2="337.6"/>
	<line class="st1" x1="436" y1="337.6" x2="441.7" y2="337.6"/>
	<line class="st1" x1="474.3" y1="365.9" x2="461.5" y2="337.6"/>
	<line class="st1" x1="436" y1="337.6" x2="423.2" y2="365.9"/>
	<line class="st1" x1="450.3" y1="351.8" x2="447.2" y2="351.8"/>
	<line class="st1" x1="450.3" y1="351.8" x2="450.3" y2="368.8"/>
	<line class="st1" x1="447.2" y1="351.8" x2="447.2" y2="368.8"/>
</g>
<g>
	<line class="st1" x1="388" y1="298.3" x2="388" y2="301.1"/>
	<line class="st1" x1="388" y1="298.3" x2="422" y2="298.3"/>
	<line class="st1" x1="422" y1="298.3" x2="422" y2="301.1"/>
	<line class="st1" x1="406.6" y1="332.3" x2="412.1" y2="332.3"/>
	<line class="st1" x1="397.9" y1="332.3" x2="403.4" y2="332.3"/>
	<line class="st1" x1="397.9" y1="332.3" x2="397.9" y2="329.4"/>
	<line class="st1" x1="412.1" y1="332.3" x2="412.1" y2="329.4"/>
	<path class="st1" d="M397.9,329.4"/>
	<path class="st1" d="M388,301.1"/>
	<path class="st1" d="M422,301.1"/>
	<path class="st1" d="M412.1,329.4"/>
	<line class="st1" x1="388" y1="301.1" x2="379.5" y2="301.1"/>
	<line class="st1" x1="430.5" y1="301.1" x2="422" y2="301.1"/>
	<line class="st1" x1="397.9" y1="329.4" x2="392.3" y2="329.4"/>
	<line class="st1" x1="417.8" y1="329.4" x2="412.1" y2="329.4"/>
	<line class="st1" x1="379.5" y1="301.1" x2="392.3" y2="329.4"/>
	<line class="st1" x1="417.8" y1="329.4" x2="430.5" y2="301.1"/>
	<line class="st1" x1="403.4" y1="315.3" x2="406.6" y2="315.3"/>
	<line class="st1" x1="403.4" y1="315.3" x2="403.4" y2="332.3"/>
	<line class="st1" x1="406.6" y1="315.3" x2="406.6" y2="332.3"/>
</g>
<g>
	<line class="st1" x1="465.8" y1="332.3" x2="465.8" y2="329.4"/>
	<line class="st1" x1="447.2" y1="332.3" x2="431.8" y2="332.3"/>
	<line class="st1" x1="465.8" y1="332.3" x2="450.3" y2="332.3"/>
	<line class="st1" x1="431.8" y1="332.3" x2="431.8" y2="329.4"/>
	<line class="st1" x1="455.8" y1="298.3" x2="441.7" y2="298.3"/>
	<line class="st1" x1="455.8" y1="298.3" x2="455.8" y2="301.1"/>
	<line class="st1" x1="441.7" y1="298.3" x2="441.7" y2="301.1"/>
	<path class="st1" d="M455.8,301.1"/>
	<path class="st1" d="M465.8,329.4"/>
	<path class="st1" d="M431.8,329.4"/>
	<path class="st1" d="M441.7,301.1"/>
	<line class="st1" x1="465.8" y1="329.4" x2="474.3" y2="329.4"/>
	<line class="st1" x1="423.2" y1="329.4" x2="431.8" y2="329.4"/>
	<line class="st1" x1="455.8" y1="301.1" x2="461.5" y2="301.1"/>
	<line class="st1" x1="436" y1="301.1" x2="441.7" y2="301.1"/>
	<line class="st1" x1="474.3" y1="329.4" x2="461.5" y2="301.1"/>
	<line class="st1" x1="436" y1="301.1" x2="423.2" y2="329.4"/>
	<line class="st1" x1="450.3" y1="315.3" x2="447.2" y2="315.3"/>
	<line class="st1" x1="450.3" y1="315.3" x2="450.3" y2="332.3"/>
	<line class="st1" x1="447.2" y1="315.3" x2="447.2" y2="332.3"/>
</g>
<g>
	<line class="st1" x1="625" y1="277" x2="625" y2="279.8"/>
	<line class="st1" x1="643.6" y1="277" x2="659" y2="277"/>
	<line class="st1" x1="625" y1="277" x2="640.5" y2="277"/>
	<line class="st1" x1="659" y1="277" x2="659" y2="279.8"/>
	<line class="st1" x1="634.9" y1="325.2" x2="649.1" y2="325.2"/>
	<line class="st1" x1="634.9" y1="325.2" x2="634.9" y2="322.4"/>
	<line class="st1" x1="649.1" y1="325.2" x2="649.1" y2="322.4"/>
	<path class="st1" d="M634.9,322.4"/>
	<path class="st1" d="M625,279.8"/>
	<path class="st1" d="M659,279.8"/>
	<path class="st1" d="M649.1,322.4"/>
	<line class="st1" x1="625" y1="279.8" x2="616.5" y2="279.8"/>
	<line class="st1" x1="667.5" y1="279.8" x2="659" y2="279.8"/>
	<line class="st1" x1="634.9" y1="322.4" x2="629.3" y2="322.4"/>
	<line class="st1" x1="654.8" y1="322.4" x2="649.1" y2="322.4"/>
	<line class="st1" x1="616.5" y1="279.8" x2="629.3" y2="322.4"/>
	<line class="st1" x1="654.8" y1="322.4" x2="667.5" y2="279.8"/>
	<line class="st1" x1="640.5" y1="301.1" x2="643.6" y2="301.1"/>
	<line class="st1" x1="640.5" y1="301.1" x2="640.5" y2="277"/>
	<line class="st1" x1="643.6" y1="301.1" x2="643.6" y2="277"/>
</g>
<g>
	<line class="st1" x1="701.5" y1="325.2" x2="701.5" y2="322.4"/>
	<line class="st1" x1="701.5" y1="325.2" x2="667.5" y2="325.2"/>
	<line class="st1" x1="667.5" y1="325.2" x2="667.5" y2="322.4"/>
	<line class="st1" x1="683" y1="277" x2="677.4" y2="277"/>
	<line class="st1" x1="691.6" y1="277" x2="686.1" y2="277"/>
	<line class="st1" x1="691.6" y1="277" x2="691.6" y2="279.8"/>
	<line class="st1" x1="677.4" y1="277" x2="677.4" y2="279.8"/>
	<path class="st1" d="M691.6,279.8"/>
	<path class="st1" d="M701.5,322.4"/>
	<path class="st1" d="M667.5,322.4"/>
	<path class="st1" d="M677.4,279.8"/>
	<line class="st1" x1="701.5" y1="322.4" x2="710" y2="322.4"/>
	<line class="st1" x1="659" y1="322.4" x2="667.5" y2="322.4"/>
	<line class="st1" x1="691.6" y1="279.8" x2="697.3" y2="279.8"/>
	<line class="st1" x1="671.8" y1="279.8" x2="677.4" y2="279.8"/>
	<line class="st1" x1="710" y1="322.4" x2="697.3" y2="279.8"/>
	<line class="st1" x1="671.8" y1="279.8" x2="659" y2="322.4"/>
	<line class="st1" x1="686.1" y1="301.1" x2="683" y2="301.1"/>
	<line class="st1" x1="686.1" y1="301.1" x2="686.1" y2="277"/>
	<line class="st1" x1="683" y1="301.1" x2="683" y2="277"/>
</g>
<g>
	<line class="st1" x1="627.1" y1="332.3" x2="627.1" y2="335.1"/>
	<line class="st1" x1="645.7" y1="332.3" x2="661.1" y2="332.3"/>
	<line class="st1" x1="627.1" y1="332.3" x2="642.6" y2="332.3"/>
	<line class="st1" x1="661.1" y1="332.3" x2="661.1" y2="335.1"/>
	<line class="st1" x1="637.1" y1="380.4" x2="651.2" y2="380.4"/>
	<line class="st1" x1="637.1" y1="380.4" x2="637.1" y2="377.6"/>
	<line class="st1" x1="651.2" y1="380.4" x2="651.2" y2="377.6"/>
	<path class="st1" d="M637.1,377.6"/>
	<path class="st1" d="M627.1,335.1"/>
	<path class="st1" d="M661.1,335.1"/>
	<path class="st1" d="M651.2,377.6"/>
	<line class="st1" x1="627.1" y1="335.1" x2="618.6" y2="335.1"/>
	<line class="st1" x1="669.6" y1="335.1" x2="661.1" y2="335.1"/>
	<line class="st1" x1="637.1" y1="377.6" x2="631.4" y2="377.6"/>
	<line class="st1" x1="656.9" y1="377.6" x2="651.2" y2="377.6"/>
	<line class="st1" x1="618.6" y1="335.1" x2="631.4" y2="377.6"/>
	<line class="st1" x1="656.9" y1="377.6" x2="669.6" y2="335.1"/>
	<line class="st1" x1="642.6" y1="356.4" x2="645.7" y2="356.4"/>
	<line class="st1" x1="642.6" y1="356.4" x2="642.6" y2="332.3"/>
	<line class="st1" x1="645.7" y1="356.4" x2="645.7" y2="332.3"/>
</g>
<g>
	<line class="st1" x1="703.7" y1="380.4" x2="703.7" y2="377.6"/>
	<line class="st1" x1="703.7" y1="380.4" x2="669.6" y2="380.4"/>
	<line class="st1" x1="669.6" y1="380.4" x2="669.6" y2="377.6"/>
	<line class="st1" x1="685.1" y1="332.3" x2="679.6" y2="332.3"/>
	<line class="st1" x1="693.7" y1="332.3" x2="688.2" y2="332.3"/>
	<line class="st1" x1="693.7" y1="332.3" x2="693.7" y2="335.1"/>
	<line class="st1" x1="679.6" y1="332.3" x2="679.6" y2="335.1"/>
	<path class="st1" d="M693.7,335.1"/>
	<path class="st1" d="M703.7,377.6"/>
	<path class="st1" d="M669.6,377.6"/>
	<path class="st1" d="M679.6,335.1"/>
	<line class="st1" x1="703.7" y1="377.6" x2="712.2" y2="377.6"/>
	<line class="st1" x1="661.1" y1="377.6" x2="669.6" y2="377.6"/>
	<line class="st1" x1="693.7" y1="335.1" x2="699.4" y2="335.1"/>
	<line class="st1" x1="673.9" y1="335.1" x2="679.6" y2="335.1"/>
	<line class="st1" x1="712.2" y1="377.6" x2="699.4" y2="335.1"/>
	<line class="st1" x1="673.9" y1="335.1" x2="661.1" y2="377.6"/>
	<line class="st1" x1="688.2" y1="356.4" x2="685.1" y2="356.4"/>
	<line class="st1" x1="688.2" y1="356.4" x2="688.2" y2="332.3"/>
	<line class="st1" x1="685.1" y1="356.4" x2="685.1" y2="332.3"/>
</g>
<g>
	<polyline class="st1" points="882.2,340.7 882.2,346.3 879,346.3 879,340.7 	"/>
	<polyline class="st1" points="879,337.5 879,331.9 882.2,331.9 882.2,337.5 	"/>
	<polyline class="st1" points="882.2,337.5 887.8,337.5 887.8,340.7 882.2,340.7 	"/>
	<polyline class="st1" points="879,340.7 873.4,340.7 873.4,337.5 879,337.5 	"/>
	<circle class="st1" cx="880.6" cy="339.1" r="12.8"/>
</g>
<g>
	<polyline class="st1" points="806.9,312.8 806.9,318.5 803.8,318.5 803.8,312.8 	"/>
	<polyline class="st1" points="803.8,309.7 803.8,304 806.9,304 806.9,309.7 	"/>
	<polyline class="st1" points="806.9,309.7 812.6,309.7 812.6,312.8 806.9,312.8 	"/>
	<polyline class="st1" points="803.8,312.8 798.1,312.8 798.1,309.7 803.8,309.7 	"/>
	<circle class="st1" cx="805.4" cy="311.3" r="12.8"/>
</g>
<g>
	<polyline class="st1" points="822,340.7 822,346.3 818.8,346.3 818.8,340.7 	"/>
	<polyline class="st1" points="818.8,337.5 818.8,331.9 822,331.9 822,337.5 	"/>
	<polyline class="st1" points="822,337.5 827.6,337.5 827.6,340.7 822,340.7 	"/>
	<polyline class="st1" points="818.8,340.7 813.2,340.7 813.2,337.5 818.8,337.5 	"/>
	<circle class="st1" cx="820.4" cy="339.1" r="12.8"/>
</g>
<g>
	<polyline class="st1" points="791.9,340.7 791.9,346.3 788.8,346.3 788.8,340.7 	"/>
	<polyline class="st1" points="788.8,337.5 788.8,331.9 791.9,331.9 791.9,337.5 	"/>
	<polyline class="st1" points="791.9,337.5 797.5,337.5 797.5,340.7 791.9,340.7 	"/>
	<polyline class="st1" points="788.8,340.7 783.1,340.7 783.1,337.5 788.8,337.5 	"/>
	<circle class="st1" cx="790.3" cy="339.1" r="12.8"/>
</g>
<g>
	<polyline class="st1" points="761.8,340.7 761.8,346.3 758.7,346.3 758.7,340.7 	"/>
	<polyline class="st1" points="758.7,337.5 758.7,331.9 761.8,331.9 761.8,337.5 	"/>
	<polyline class="st1" points="761.8,337.5 767.4,337.5 767.4,340.7 761.8,340.7 	"/>
	<polyline class="st1" points="758.7,340.7 753,340.7 753,337.5 758.7,337.5 	"/>
	<circle class="st1" cx="760.2" cy="339.1" r="12.8"/>
</g>
<g>
	<polyline class="st1" points="837,312.8 837,318.5 833.9,318.5 833.9,312.8 	"/>
	<polyline class="st1" points="833.9,309.7 833.9,304 837,304 837,309.7 	"/>
	<polyline class="st1" points="837,309.7 842.7,309.7 842.7,312.8 837,312.8 	"/>
	<polyline class="st1" points="833.9,312.8 828.2,312.8 828.2,309.7 833.9,309.7 	"/>
	<circle class="st1" cx="835.5" cy="311.3" r="12.8"/>
</g>
<g>
	<polyline class="st1" points="852.1,340.7 852.1,346.3 848.9,346.3 848.9,340.7 	"/>
	<polyline class="st1" points="848.9,337.5 848.9,331.9 852.1,331.9 852.1,337.5 	"/>
	<polyline class="st1" points="852.1,337.5 857.7,337.5 857.7,340.7 852.1,340.7 	"/>
	<polyline class="st1" points="848.9,340.7 843.3,340.7 843.3,337.5 848.9,337.5 	"/>
	<circle class="st1" cx="850.5" cy="339.1" r="12.8"/>
</g>
<g>
	<polyline class="st1" points="776.8,312.8 776.8,318.5 773.7,318.5 773.7,312.8 	"/>
	<polyline class="st1" points="773.7,309.7 773.7,304 776.8,304 776.8,309.7 	"/>
	<polyline class="st1" points="776.8,309.7 782.5,309.7 782.5,312.8 776.8,312.8 	"/>
	<polyline class="st1" points="773.7,312.8 768,312.8 768,309.7 773.7,309.7 	"/>
	<circle class="st1" cx="775.3" cy="311.3" r="12.8"/>
</g>
<g>
	<polyline class="st1" points="867.1,312.8 867.1,318.5 864,318.5 864,312.8 	"/>
	<polyline class="st1" points="864,309.7 864,304 867.1,304 867.1,309.7 	"/>
	<polyline class="st1" points="867.1,309.7 872.8,309.7 872.8,312.8 867.1,312.8 	"/>
	<polyline class="st1" points="864,312.8 858.3,312.8 858.3,309.7 864,309.7 	"/>
	<circle class="st1" cx="865.5" cy="311.3" r="12.8"/>
</g>
<g>
	<polyline class="st1" points="897.2,312.8 897.2,318.5 894.1,318.5 894.1,312.8 	"/>
	<polyline class="st1" points="894.1,309.7 894.1,304 897.2,304 897.2,309.7 	"/>
	<polyline class="st1" points="897.2,309.7 902.9,309.7 902.9,312.8 897.2,312.8 	"/>
	<polyline class="st1" points="894.1,312.8 888.4,312.8 888.4,309.7 894.1,309.7 	"/>
	<circle class="st1" cx="895.6" cy="311.3" r="12.8"/>
</g>
</svg>
