<?xml version="1.0" encoding="utf-8"?>
<!-- Generator: Adobe Illustrator 20.0.0, SVG Export Plug-In . SVG Version: 6.00 Build 0)  -->
<svg version="1.1" id="Layer_1" xmlns="http://www.w3.org/2000/svg" xmlns:xlink="http://www.w3.org/1999/xlink" x="0px" y="0px"
	 viewBox="0 0 1224 792" style="enable-background:new 0 0 1224 792;" xml:space="preserve">
<style type="text/css">
	.st0{fill:none;stroke:#000000;stroke-linejoin:round;stroke-miterlimit:10;}
	.st1{fill:none;stroke:#000000;stroke-linecap:round;stroke-linejoin:round;stroke-miterlimit:10;}
</style>
<title>SVG Picture created as 40+10 Keyboard-B.SilkS.svg date 2017/06/06 19:53:26</title>
<desc>Picture generated by PCBNEW</desc>
<g transform="translate(0 0) scale(1 1)">
</g>
<rect x="311.1" y="381.7" class="st0" width="12.8" height="34"/>
<rect x="332.6" y="381.7" class="st0" width="12.8" height="34"/>
<rect x="354.1" y="381.7" class="st0" width="12.8" height="34"/>
<rect x="375.6" y="381.7" class="st0" width="12.8" height="34"/>
<g>
	<polyline class="st1" points="271.8,357.7 276.1,357.7 276.1,363.1 271.8,363.1 	"/>
	<line class="st1" x1="271.8" y1="357.7" x2="271.8" y2="352"/>
	<line class="st1" x1="271.8" y1="363.1" x2="271.8" y2="368.8"/>
	<line class="st1" x1="271.8" y1="352" x2="265.6" y2="352"/>
	<line class="st1" x1="271.8" y1="368.8" x2="265.6" y2="368.8"/>
	<line class="st1" x1="265.6" y1="354.9" x2="265.6" y2="365.9"/>
	<line class="st1" x1="271.8" y1="352" x2="261.9" y2="352"/>
	<line class="st1" x1="271.8" y1="368.8" x2="261.9" y2="368.8"/>
	<line class="st1" x1="261.9" y1="352" x2="261.9" y2="354.9"/>
	<line class="st1" x1="261.9" y1="368.8" x2="261.9" y2="365.9"/>
	<line class="st1" x1="261.9" y1="354.9" x2="265.6" y2="354.9"/>
	<line class="st1" x1="261.9" y1="365.9" x2="265.6" y2="365.9"/>
</g>
<g>
	<polyline class="st1" points="398.1,357.7 402.3,357.7 402.3,363.1 398.1,363.1 	"/>
	<line class="st1" x1="398.1" y1="357.7" x2="398.1" y2="352"/>
	<line class="st1" x1="398.1" y1="363.1" x2="398.1" y2="368.8"/>
	<line class="st1" x1="398.1" y1="352" x2="391.9" y2="352"/>
	<line class="st1" x1="398.1" y1="368.8" x2="391.9" y2="368.8"/>
	<line class="st1" x1="391.9" y1="354.9" x2="391.9" y2="365.9"/>
	<line class="st1" x1="398.1" y1="352" x2="388.2" y2="352"/>
	<line class="st1" x1="398.1" y1="368.8" x2="388.2" y2="368.8"/>
	<line class="st1" x1="388.2" y1="352" x2="388.2" y2="354.9"/>
	<line class="st1" x1="388.2" y1="368.8" x2="388.2" y2="365.9"/>
	<line class="st1" x1="388.2" y1="354.9" x2="391.9" y2="354.9"/>
	<line class="st1" x1="388.2" y1="365.9" x2="391.9" y2="365.9"/>
</g>
<g>
	<polyline class="st1" points="377,357.7 381.3,357.7 381.3,363.1 377,363.1 	"/>
	<line class="st1" x1="377" y1="357.7" x2="377" y2="352"/>
	<line class="st1" x1="377" y1="363.1" x2="377" y2="368.8"/>
	<line class="st1" x1="377" y1="352" x2="370.8" y2="352"/>
	<line class="st1" x1="377" y1="368.8" x2="370.8" y2="368.8"/>
	<line class="st1" x1="370.8" y1="354.9" x2="370.8" y2="365.9"/>
	<line class="st1" x1="377" y1="352" x2="367.2" y2="352"/>
	<line class="st1" x1="377" y1="368.8" x2="367.2" y2="368.8"/>
	<line class="st1" x1="367.2" y1="352" x2="367.2" y2="354.9"/>
	<line class="st1" x1="367.2" y1="368.8" x2="367.2" y2="365.9"/>
	<line class="st1" x1="367.2" y1="354.9" x2="370.8" y2="354.9"/>
	<line class="st1" x1="367.2" y1="365.9" x2="370.8" y2="365.9"/>
</g>
<g>
	<polyline class="st1" points="356,357.7 360.2,357.7 360.2,363.1 356,363.1 	"/>
	<line class="st1" x1="356" y1="357.7" x2="356" y2="352"/>
	<line class="st1" x1="356" y1="363.1" x2="356" y2="368.8"/>
	<line class="st1" x1="356" y1="352" x2="349.8" y2="352"/>
	<line class="st1" x1="356" y1="368.8" x2="349.8" y2="368.8"/>
	<line class="st1" x1="349.8" y1="354.9" x2="349.8" y2="365.9"/>
	<line class="st1" x1="356" y1="352" x2="346.1" y2="352"/>
	<line class="st1" x1="356" y1="368.8" x2="346.1" y2="368.8"/>
	<line class="st1" x1="346.1" y1="352" x2="346.1" y2="354.9"/>
	<line class="st1" x1="346.1" y1="368.8" x2="346.1" y2="365.9"/>
	<line class="st1" x1="346.1" y1="354.9" x2="349.8" y2="354.9"/>
	<line class="st1" x1="346.1" y1="365.9" x2="349.8" y2="365.9"/>
</g>
<g>
	<polyline class="st1" points="334.9,357.7 339.2,357.7 339.2,363.1 334.9,363.1 	"/>
	<line class="st1" x1="334.9" y1="357.7" x2="334.9" y2="352"/>
	<line class="st1" x1="334.9" y1="363.1" x2="334.9" y2="368.8"/>
	<line class="st1" x1="334.9" y1="352" x2="328.7" y2="352"/>
	<line class="st1" x1="334.9" y1="368.8" x2="328.7" y2="368.8"/>
	<line class="st1" x1="328.7" y1="354.9" x2="328.7" y2="365.9"/>
	<line class="st1" x1="334.9" y1="352" x2="325.1" y2="352"/>
	<line class="st1" x1="334.9" y1="368.8" x2="325.1" y2="368.8"/>
	<line class="st1" x1="325.1" y1="352" x2="325.1" y2="354.9"/>
	<line class="st1" x1="325.1" y1="368.8" x2="325.1" y2="365.9"/>
	<line class="st1" x1="325.1" y1="354.9" x2="328.7" y2="354.9"/>
	<line class="st1" x1="325.1" y1="365.9" x2="328.7" y2="365.9"/>
</g>
<g>
	<polyline class="st1" points="313.9,357.7 318.1,357.7 318.1,363.1 313.9,363.1 	"/>
	<line class="st1" x1="313.9" y1="357.7" x2="313.9" y2="352"/>
	<line class="st1" x1="313.9" y1="363.1" x2="313.9" y2="368.8"/>
	<line class="st1" x1="313.9" y1="352" x2="307.7" y2="352"/>
	<line class="st1" x1="313.9" y1="368.8" x2="307.7" y2="368.8"/>
	<line class="st1" x1="307.7" y1="354.9" x2="307.7" y2="365.9"/>
	<line class="st1" x1="313.9" y1="352" x2="304" y2="352"/>
	<line class="st1" x1="313.9" y1="368.8" x2="304" y2="368.8"/>
	<line class="st1" x1="304" y1="352" x2="304" y2="354.9"/>
	<line class="st1" x1="304" y1="368.8" x2="304" y2="365.9"/>
	<line class="st1" x1="304" y1="354.9" x2="307.7" y2="354.9"/>
	<line class="st1" x1="304" y1="365.9" x2="307.7" y2="365.9"/>
</g>
<g>
	<polyline class="st1" points="292.8,357.7 297.1,357.7 297.1,363.1 292.8,363.1 	"/>
	<line class="st1" x1="292.8" y1="357.7" x2="292.8" y2="352"/>
	<line class="st1" x1="292.8" y1="363.1" x2="292.8" y2="368.8"/>
	<line class="st1" x1="292.8" y1="352" x2="286.6" y2="352"/>
	<line class="st1" x1="292.8" y1="368.8" x2="286.6" y2="368.8"/>
	<line class="st1" x1="286.6" y1="354.9" x2="286.6" y2="365.9"/>
	<line class="st1" x1="292.8" y1="352" x2="283" y2="352"/>
	<line class="st1" x1="292.8" y1="368.8" x2="283" y2="368.8"/>
	<line class="st1" x1="283" y1="352" x2="283" y2="354.9"/>
	<line class="st1" x1="283" y1="368.8" x2="283" y2="365.9"/>
	<line class="st1" x1="283" y1="354.9" x2="286.6" y2="354.9"/>
	<line class="st1" x1="283" y1="365.9" x2="286.6" y2="365.9"/>
</g>
<g>
	<polyline class="st1" points="419.1,357.7 423.4,357.7 423.4,363.1 419.1,363.1 	"/>
	<line class="st1" x1="419.1" y1="357.7" x2="419.1" y2="352"/>
	<line class="st1" x1="419.1" y1="363.1" x2="419.1" y2="368.8"/>
	<line class="st1" x1="419.1" y1="352" x2="412.9" y2="352"/>
	<line class="st1" x1="419.1" y1="368.8" x2="412.9" y2="368.8"/>
	<line class="st1" x1="412.9" y1="354.9" x2="412.9" y2="365.9"/>
	<line class="st1" x1="419.1" y1="352" x2="409.3" y2="352"/>
	<line class="st1" x1="419.1" y1="368.8" x2="409.3" y2="368.8"/>
	<line class="st1" x1="409.3" y1="352" x2="409.3" y2="354.9"/>
	<line class="st1" x1="409.3" y1="368.8" x2="409.3" y2="365.9"/>
	<line class="st1" x1="409.3" y1="354.9" x2="412.9" y2="354.9"/>
	<line class="st1" x1="409.3" y1="365.9" x2="412.9" y2="365.9"/>
</g>
</svg>
